{"title":"The.Amazing.Spider.Man.2.BRRip.720P.MP4.NL.ENG.SRT.2014.{Th3Sp3c","uid":10711916,"size":2415647268,"categoryP":"video","categoryS":"hd___movies","magnet":"?xt=urn:btih:359ad5031c1f2ed53d1ae4340b5287a3661c485e&amp;dn=The.Amazing.Spider.Man.2.BRRip.720P.MP4.NL.ENG.SRT.2014.%7BTh3Sp3c&amp;tr=udp%3A%2F%2Ftracker.openbittorrent.com%3A80&amp;tr=udp%3A%2F%2Fopen.demonii.com%3A1337&amp;tr=udp%3A%2F%2Ftracker.coppersurfer.tk%3A6969&amp;tr=udp%3A%2F%2Fexodus.desync.com%3A6969","seeders":5,"leechers":0,"uploader":"HOLLANDmovies","files":-1,"time":1407367259,"description":"Complete name: The.Amazing.Spider.Man.2.2014.720p.MP4.{Th3Sp3cialist}\n\nFormat                         : MPEG-4\nFormat profile                 : Base Media\nCodec ID                       : isom\nFile size                      : 2.25 GiB\nDuration                       : 2h 21mn\nOverall bit rate mode          : Variable\nOverall bit rate               : 2 275 Kbps\nEncoded date                   : UTC 2014-07-25 03:13:15\nTagged date                    : UTC 2014-07-25 03:13:15\n\nVideo\nID                             : 1\nFormat                         : AVC\nFormat/Info                    : Advanced Video Codec\nFormat profile                 : &lt;a class=&quot;__cf_email__&quot; href=&quot;/cdn-cgi/l/email-protection&quot; data-cfemail=&quot;d69ebfb1be969ae2f8e7&quot;&gt;[email&amp;#160;protected]&lt;/a&gt;&lt;script cf-hash='f9e31' type=&quot;text/javascript&quot;&gt;\n/* &lt;![CDATA[ */!function(){try{var t=&quot;currentScript&quot;in document?document.currentScript:function(){for(var t=document.getElementsByTagName(&quot;script&quot;),e=t.length;e--;)if(t[e].getAttribute(&quot;cf-hash&quot;))return t[e]}();if(t&amp;&amp;t.previousSibling){var e,r,n,i,c=t.previousSibling,a=c.getAttribute(&quot;data-cfemail&quot;);if(a){for(e=&quot;&quot;,r=parseInt(a.substr(0,2),16),n=2;a.length-n;n+=2)i=parseInt(a.substr(n,2),16)^r,e+=String.fromCharCode(i);e=document.createTextNode(e),c.parentNode.replaceChild(e,c)}}}catch(u){}}();/* ]]&gt; */&lt;/script&gt;\nFormat settings, CABAC         : Yes\nFormat settings, ReFrames      : 3 frames\nCodec ID                       : avc1\nCodec ID/Info                  : Advanced Video Coding\nDuration                       : 2h 21mn\nBit rate mode                  : Variable\nBit rate                       : 1 952 Kbps\nMaximum bit rate               : 40.0 Mbps\nWidth                          : 1 280 pixels\nHeight                         : 528 pixels\nDisplay aspect ratio           : 2.40:1\nFrame rate mode                : Constant\nFrame rate                     : 23.976 fps\nColor space                    : YUV\nChroma subsampling             : 4:2:0\nBit depth                      : 8 bits\nScan type                      : Progressive\nBits/(Pixel*Frame)             : 0.120\nStream size                    : 1.93 GiB (86%)\nTitle                          : SkN @ KiNGDOM RG\nWriting library                : x264 core 142 r2431 ac76440\nEncoding settings              : \nEncoded date                   : UTC 2014-07-25 03:13:15\nTagged date                    : UTC 2014-07-25 03:16:16\n\nAudio\nID                             : 2\nFormat                         : AAC\nFormat/Info                    : Advanced Audio Codec\nFormat profile                 : LC\nCodec ID                       : 40\nDuration                       : 2h 21mn\nBit rate mode                  : Variable\nBit rate                       : 320 Kbps\nMaximum bit rate               : 335 Kbps\nChannel(s)                     : 6 channels\nChannel positions              : Front: L C R, Side: L R, LFE\nSampling rate                  : 48.0 KHz\nCompression mode               : Lossy\nStream size                    : 324 MiB (14%)\nEncoded date                   : UTC 2014-07-24 19:41:06\nTagged date                    : UTC 2014-07-25 03:16:16","torrent":{"xt":"urn:btih:359ad5031c1f2ed53d1ae4340b5287a3661c485e","amp;dn":"The.Amazing.Spider.Man.2.BRRip.720P.MP4.NL.ENG.SRT.2014.%7BTh3Sp3c","amp;tr":["udp%3A%2F%2Ftracker.openbittorrent.com%3A80","udp%3A%2F%2Fopen.demonii.com%3A1337","udp%3A%2F%2Ftracker.coppersurfer.tk%3A6969","udp%3A%2F%2Fexodus.desync.com%3A6969"],"infoHash":"359ad5031c1f2ed53d1ae4340b5287a3661c485e","infoHashBuffer":{"type":"Buffer","data":[53,154,213,3,28,31,46,213,61,26,228,52,11,82,135,163,102,28,72,94]},"announce":[],"urlList":[]}}